Coordinates
version=1
nRows=14
nColumns=40
inDegrees=yes

Units are S.I. units (second, meters, Newtons, ...)
If the header above contains a line with 'inDegrees', this indicates whether rotational values are in degrees (yes) or radians (no).

endheader
time	pelvis_tilt	pelvis_list	pelvis_rotation	pelvis_tx	pelvis_ty	pelvis_tz	hip_flexion_r	hip_adduction_r	hip_rotation_r	knee_angle_r	knee_angle_r_beta	ankle_angle_r	subtalar_angle_r	mtp_angle_r	hip_flexion_l	hip_adduction_l	hip_rotation_l	knee_angle_l	knee_angle_l_beta	ankle_angle_l	subtalar_angle_l	mtp_angle_l	lumbar_extension	lumbar_bending	lumbar_rotation	arm_flex_r	arm_add_r	arm_rot_r	elbow_flex_r	pro_sup_r	wrist_flex_r	wrist_dev_r	arm_flex_l	arm_add_l	arm_rot_l	elbow_flex_l	pro_sup_l	wrist_flex_l	wrist_dev_l
      1.06000000	      0.63819988	     -5.60820984	     89.14354733	      0.22059090	      0.92494921	      0.69370893	      7.30450504	      3.43462208	      3.33366759	      6.19770117	      0.10817029	      7.48832458	      0.00000000	      0.00000000	     30.11826066	     -8.99960204	     -6.49758128	     68.61322215	      1.19752664	      1.33791389	      0.00000000	      0.00000000	     -3.35039592	      1.29292140	     -1.75491336	      0.00000000	      0.00000000	      0.00000000	      0.00000000	      0.00000000	      0.00000000	      0.00000000	      0.00000000	      0.00000000	      0.00000000	      0.00000000	      0.00000000	      0.00000000	      0.00000000
      1.07000000	      0.48202425	     -5.79767195	     88.90042173	      0.22082825	      0.92510059	      0.68160015	      6.07813864	      3.27553042	      3.63356831	      5.12909002	      0.08951951	      7.73622730	      0.00000000	      0.00000000	     31.72830838	     -8.83235405	     -6.62833627	     67.13859236	      1.17178949	      2.10823656	      0.00000000	      0.00000000	     -3.28249614	      1.13111025	     -1.37284863	      0.00000000	      0.00000000	      0.00000000	      0.00000000	      0.00000000	      0.00000000	      0.00000000	      0.00000000	      0.00000000	      0.00000000	      0.00000000	      0.00000000	      0.00000000	      0.00000000
      1.08000000	      0.45826635	     -6.09808046	     88.61743568	      0.22115544	      0.92467611	      0.66966462	      5.16221027	      3.25427173	      3.45992086	      4.38107510	      0.07646419	      8.03799281	      0.00000000	      0.00000000	     33.38617741	     -8.83424323	     -6.71830497	     65.42150229	      1.14182062	      2.58827932	      0.00000000	      0.00000000	     -3.09921179	      1.10524602	     -0.81593438	      0.00000000	      0.00000000	      0.00000000	      0.00000000	      0.00000000	      0.00000000	      0.00000000	      0.00000000	      0.00000000	      0.00000000	      0.00000000	      0.00000000	      0.00000000	      0.00000000
      1.09000000	      0.27697014	     -6.14941872	     88.28319903	      0.22142759	      0.92442072	      0.65734893	      3.74831828	      3.05449508	      4.24219283	      3.26427036	      0.05697227	      8.32394723	      0.00000000	      0.00000000	     34.52614586	     -8.63616548	     -6.86402821	     63.31164450	      1.10499665	      3.36282806	      0.00000000	      0.00000000	     -3.17708931	      0.88121909	     -0.33980365	      0.00000000	      0.00000000	      0.00000000	      0.00000000	      0.00000000	      0.00000000	      0.00000000	      0.00000000	      0.00000000	      0.00000000	      0.00000000	      0.00000000	      0.00000000	      0.00000000
      1.10000000	      0.04005238	     -5.87020053	     87.80578156	      0.22181688	      0.92443943	      0.64476222	      2.03563513	      2.75201385	      4.84909203	      2.25893248	      0.03942581	      8.53053485	      0.00000000	      0.00000000	     35.04661949	     -8.47773922	     -7.24776591	     60.77743790	      1.06076640	      3.81940700	      0.00000000	      0.00000000	     -3.64836906	      0.60771008	      0.26351478	      0.00000000	      0.00000000	      0.00000000	      0.00000000	      0.00000000	      0.00000000	      0.00000000	      0.00000000	      0.00000000	      0.00000000	      0.00000000	      0.00000000	      0.00000000	      0.00000000
      1.11000000	     -0.06086479	     -5.87736796	     87.42387559	      0.22205529	      0.92360333	      0.63241221	      0.75424890	      2.58580407	      5.20496222	      1.47220908	      0.02569490	      8.88231904	      0.00000000	      0.00000000	     35.86973602	     -8.38996077	     -7.41826543	     58.07904480	      1.01367056	      4.05076133	     -0.00000000	     -0.00000000	     -3.79825297	      0.48168622	      0.82284919	     -0.00000000	      0.00000000	     -0.00000000	      0.00000000	      0.00000000	      0.00000000	      0.00000000	     -0.00000000	     -0.00000000	     -0.00000000	      0.00000000	      0.00000000	      0.00000000	      0.00000000
      1.12000000	     -0.10039585	     -5.94852112	     87.04234148	      0.22226768	      0.92235425	      0.62005537	     -0.43260168	      2.47392637	      5.64734581	      0.75078011	      0.01310358	      9.31476218	      0.00000000	      0.00000000	     36.64828209	     -8.36687325	     -7.55740952	     55.13050057	      0.96220875	      4.12237925	      0.00000000	      0.00000000	     -3.87725854	      0.42740628	      1.32935797	      0.00000000	      0.00000000	      0.00000000	      0.00000000	      0.00000000	      0.00000000	      0.00000000	      0.00000000	      0.00000000	      0.00000000	      0.00000000	      0.00000000	      0.00000000	      0.00000000
      1.13000000	     -0.13288928	     -5.92131191	     86.67121480	      0.22237874	      0.92099109	      0.60753964	     -1.71655383	      2.34101246	      6.00748401	      0.06426003	      0.00112155	      9.70031009	      0.00000000	     -0.00000000	     37.15660043	     -8.32694081	     -7.68886175	     51.88108258	      0.90549571	      4.04461572	      0.00000000	      0.00000000	     -4.06608832	      0.37674813	      1.84731293	      0.00000000	     -0.00000000	     -0.00000000	      0.00000000	      0.00000000	      0.00000000	     -0.00000000	     -0.00000000	     -0.00000000	     -0.00000000	      0.00000000	      0.00000000	      0.00000000	      0.00000000
      1.14000000	     -0.10888495	     -5.94600740	     86.30749180	      0.22247140	      0.91925791	      0.59497079	     -2.93780855	      2.25780289	      6.41650612	     -0.58517752	     -0.01021327	     10.18729929	      0.00000000	      0.00000000	     37.60778976	     -8.34831143	     -7.80042583	     48.40194373	      0.84477328	      3.71710923	      0.00000000	      0.00000000	     -4.19425776	      0.38376997	      2.34586238	      0.00000000	      0.00000000	      0.00000000	      0.00000000	      0.00000000	      0.00000000	      0.00000000	      0.00000000	      0.00000000	      0.00000000	      0.00000000	      0.00000000	      0.00000000	      0.00000000
      1.15000000	     -0.00958324	     -6.08922283	     86.01403017	      0.22240282	      0.91705651	      0.58237498	     -4.03355211	      2.25054719	      6.82734442	     -1.20731716	     -0.02107166	     10.74853680	      0.00000000	      0.00000000	     38.10446744	     -8.39244405	     -7.78932490	     44.73091387	      0.78070172	      3.22178729	      0.00000000	      0.00000000	     -4.19020734	      0.48729168	      2.71093112	      0.00000000	      0.00000000	      0.00000000	      0.00000000	      0.00000000	      0.00000000	      0.00000000	      0.00000000	      0.00000000	      0.00000000	      0.00000000	      0.00000000	      0.00000000	      0.00000000
      1.16000000	      0.01916546	     -6.00813480	     85.67728271	      0.22228454	      0.91503823	      0.56953350	     -5.37165546	      2.12213675	      7.19622749	     -1.81111603	     -0.03160994	     11.20854954	     -0.00000000	      0.00000000	     38.14408078	     -8.36269439	     -7.87346952	     40.73362027	      0.71093579	      2.53425406	     -0.00000000	     -0.00000000	     -4.42465461	      0.49000980	      3.13501327	     -0.00000000	     -0.00000000	     -0.00000000	      0.00000000	      0.00000000	     -0.00000000	     -0.00000000	     -0.00000000	      0.00000000	     -0.00000000	      0.00000000	      0.00000000	     -0.00000000	      0.00000000
      1.17000000	      0.40073810	     -6.35347827	     85.52384035	      0.22190338	      0.91198326	      0.55701686	     -6.16683847	      2.42911093	      7.36177518	     -2.22925270	     -0.03890780	     11.63637244	      0.00000000	      0.00000000	     38.75145633	     -8.55094518	     -7.40216218	     36.87949107	      0.64366855	      2.35543498	      0.00000000	      0.00000000	     -4.23162691	      0.94212139	      3.62655966	      0.00000000	      0.00000000	      0.00000000	      0.00000000	      0.00000000	      0.00000000	      0.00000000	      0.00000000	      0.00000000	      0.00000000	      0.00000000	      0.00000000	      0.00000000	      0.00000000
      1.18000000	      0.24895642	     -6.16900260	     85.21019187	      0.22157799	      0.90970418	      0.54356704	     -7.76914826	      2.04695563	      7.83124870	     -3.05693748	     -0.05335362	     12.34879785	      0.00000000	      0.00000000	     38.36028777	     -8.30150201	     -7.57748788	     32.43384080	      0.56607731	      0.87246834	      0.00000000	      0.00000000	     -4.49966691	      0.70920622	      3.81680490	      0.00000000	      0.00000000	      0.00000000	      0.00000000	      0.00000000	      0.00000000	      0.00000000	      0.00000000	      0.00000000	      0.00000000	      0.00000000	      0.00000000	      0.00000000	      0.00000000
      1.19000000	      0.26614477	     -5.98991425	     84.93770222	      0.22109695	      0.90717938	      0.53010344	     -9.26145035	      1.84712404	      8.03112648	     -3.67650963	     -0.06416720	     12.73599058	      0.00000000	      0.00000000	     37.93001265	     -8.15402483	     -7.49941098	     28.06195552	      0.48977352	      0.12471313	      0.00000000	      0.00000000	     -4.80233915	      0.68400382	      4.13515616	      0.00000000	      0.00000000	      0.00000000	      0.00000000	      0.00000000	      0.00000000	      0.00000000	      0.00000000	      0.00000000	      0.00000000	      0.00000000	      0.00000000	      0.00000000	      0.00000000
